<svg width="74" height="48" viewBox="0 0 74 48" fill="none" xmlns="http://www.w3.org/2000/svg">
<path d="M7.22727 15H2.75V3.36364H7.18182C8.37879 3.36364 9.41288 3.59659 10.2841 4.0625C11.1591 4.52462 11.8333 5.19129 12.3068 6.0625C12.7841 6.92992 13.0227 7.9697 13.0227 9.18182C13.0227 10.3939 12.786 11.4356 12.3125 12.3068C11.839 13.1742 11.1686 13.8409 10.3011 14.3068C9.43371 14.7689 8.40909 15 7.22727 15ZM5.90909 12.3182H7.11364C7.68939 12.3182 8.17992 12.2254 8.58523 12.0398C8.99432 11.8542 9.30492 11.5341 9.51705 11.0795C9.73295 10.625 9.84091 9.99242 9.84091 9.18182C9.84091 8.37121 9.73106 7.73864 9.51136 7.28409C9.29545 6.82954 8.97727 6.50947 8.55682 6.32386C8.14015 6.13826 7.62879 6.04545 7.02273 6.04545H5.90909V12.3182ZM17.1635 3.36364V15H14.0044V3.36364H17.1635ZM24.4534 7C24.423 6.62121 24.281 6.32576 24.0272 6.11364C23.7772 5.90151 23.3965 5.79545 22.8852 5.79545C22.5594 5.79545 22.2924 5.83523 22.084 5.91477C21.8795 5.99053 21.728 6.0947 21.6295 6.22727C21.531 6.35985 21.4799 6.51136 21.4761 6.68182C21.4685 6.82197 21.4931 6.94886 21.5499 7.0625C21.6105 7.17235 21.7052 7.27273 21.834 7.36364C21.9628 7.45076 22.1276 7.5303 22.3284 7.60227C22.5291 7.67424 22.7677 7.73864 23.0443 7.79545L23.9988 8C24.6427 8.13636 25.1939 8.31629 25.6522 8.53977C26.1105 8.76326 26.4855 9.02652 26.7772 9.32955C27.0689 9.62879 27.2829 9.96591 27.4193 10.3409C27.5594 10.7159 27.6314 11.125 27.6352 11.5682C27.6314 12.3333 27.4401 12.9811 27.0613 13.5114C26.6825 14.0417 26.1409 14.4451 25.4363 14.7216C24.7355 14.9981 23.8927 15.1364 22.9079 15.1364C21.8965 15.1364 21.014 14.9867 20.2602 14.6875C19.5102 14.3883 18.9268 13.928 18.5102 13.3068C18.0973 12.6818 17.889 11.8826 17.8852 10.9091H20.8852C20.9041 11.2652 20.9931 11.5644 21.1522 11.8068C21.3113 12.0492 21.5348 12.233 21.8227 12.358C22.1143 12.483 22.4609 12.5455 22.8624 12.5455C23.1996 12.5455 23.4818 12.5038 23.709 12.4205C23.9363 12.3371 24.1087 12.2216 24.2261 12.0739C24.3435 11.9261 24.4041 11.7576 24.4079 11.5682C24.4041 11.3902 24.3454 11.2348 24.2318 11.1023C24.1219 10.9659 23.9401 10.8447 23.6863 10.7386C23.4325 10.6288 23.0897 10.5265 22.6579 10.4318L21.4988 10.1818C20.4685 9.95833 19.656 9.58523 19.0613 9.0625C18.4704 8.53598 18.1768 7.81818 18.1806 6.90909C18.1768 6.17045 18.3738 5.52462 18.7715 4.97159C19.173 4.41477 19.728 3.98106 20.4363 3.67045C21.1484 3.35985 21.9647 3.20455 22.8852 3.20455C23.8246 3.20455 24.6371 3.36174 25.3227 3.67614C26.0083 3.99053 26.5367 4.43371 26.9079 5.00568C27.2829 5.57386 27.4723 6.23864 27.4761 7H24.4534ZM39.2205 7.72727H36.016C35.9932 7.46212 35.9326 7.22159 35.8341 7.00568C35.7395 6.78977 35.6069 6.60417 35.4364 6.44886C35.2698 6.28977 35.0671 6.16856 34.8285 6.08523C34.5898 5.99811 34.319 5.95455 34.016 5.95455C33.4857 5.95455 33.0368 6.08333 32.6694 6.34091C32.3057 6.59848 32.0292 6.9678 31.8398 7.44886C31.6542 7.92992 31.5614 8.50758 31.5614 9.18182C31.5614 9.89394 31.6561 10.4905 31.8455 10.9716C32.0387 11.4489 32.3171 11.8087 32.6807 12.0511C33.0444 12.2898 33.4819 12.4091 33.9932 12.4091C34.2849 12.4091 34.5463 12.3731 34.7773 12.3011C35.0084 12.2254 35.2091 12.1174 35.3796 11.9773C35.5501 11.8371 35.6883 11.6686 35.7944 11.4716C35.9042 11.2708 35.9781 11.0455 36.016 10.7955L39.2205 10.8182C39.1826 11.3106 39.0444 11.8125 38.8057 12.3239C38.5671 12.8314 38.2281 13.3011 37.7887 13.733C37.3531 14.161 36.8133 14.5057 36.1694 14.767C35.5254 15.0284 34.7773 15.1591 33.9251 15.1591C32.8569 15.1591 31.8985 14.9299 31.0501 14.4716C30.2054 14.0133 29.5368 13.339 29.0444 12.4489C28.5557 11.5587 28.3114 10.4697 28.3114 9.18182C28.3114 7.88636 28.5614 6.79545 29.0614 5.90909C29.5614 5.01894 30.2357 4.34659 31.0841 3.89205C31.9326 3.43371 32.8796 3.20455 33.9251 3.20455C34.6599 3.20455 35.336 3.30492 35.9535 3.50568C36.5709 3.70644 37.1126 4 37.5785 4.38636C38.0444 4.76894 38.4194 5.24053 38.7035 5.80114C38.9876 6.36174 39.1599 7.00379 39.2205 7.72727ZM51.4465 9.18182C51.4465 10.4773 51.1946 11.5701 50.6908 12.4602C50.187 13.3466 49.5071 14.0189 48.651 14.4773C47.795 14.9318 46.8404 15.1591 45.7874 15.1591C44.7268 15.1591 43.7684 14.9299 42.9124 14.4716C42.0601 14.0095 41.3821 13.3352 40.8783 12.4489C40.3783 11.5587 40.1283 10.4697 40.1283 9.18182C40.1283 7.88636 40.3783 6.79545 40.8783 5.90909C41.3821 5.01894 42.0601 4.34659 42.9124 3.89205C43.7684 3.43371 44.7268 3.20455 45.7874 3.20455C46.8404 3.20455 47.795 3.43371 48.651 3.89205C49.5071 4.34659 50.187 5.01894 50.6908 5.90909C51.1946 6.79545 51.4465 7.88636 51.4465 9.18182ZM48.1965 9.18182C48.1965 8.48485 48.1037 7.89773 47.9181 7.42045C47.7363 6.93939 47.4654 6.57576 47.1056 6.32955C46.7495 6.07955 46.3101 5.95455 45.7874 5.95455C45.2647 5.95455 44.8234 6.07955 44.4635 6.32955C44.1075 6.57576 43.8366 6.93939 43.651 7.42045C43.4692 7.89773 43.3783 8.48485 43.3783 9.18182C43.3783 9.87879 43.4692 10.4678 43.651 10.9489C43.8366 11.4261 44.1075 11.7898 44.4635 12.0398C44.8234 12.286 45.2647 12.4091 45.7874 12.4091C46.3101 12.4091 46.7495 12.286 47.1056 12.0398C47.4654 11.7898 47.7363 11.4261 47.9181 10.9489C48.1037 10.4678 48.1965 9.87879 48.1965 9.18182ZM52.4281 15V3.36364H57.4509C58.3145 3.36364 59.0702 3.52083 59.7179 3.83523C60.3656 4.14962 60.8694 4.60227 61.2293 5.19318C61.5891 5.78409 61.769 6.49242 61.769 7.31818C61.769 8.15151 61.5834 8.85417 61.2122 9.42614C60.8448 9.99811 60.3277 10.4299 59.6611 10.7216C58.9982 11.0133 58.2236 11.1591 57.3372 11.1591H54.3372V8.70455H56.7009C57.0721 8.70455 57.3884 8.65909 57.6497 8.56818C57.9149 8.47348 58.1175 8.32386 58.2577 8.11932C58.4016 7.91477 58.4736 7.64773 58.4736 7.31818C58.4736 6.98485 58.4016 6.71402 58.2577 6.50568C58.1175 6.29356 57.9149 6.13826 57.6497 6.03977C57.3884 5.9375 57.0721 5.88636 56.7009 5.88636H55.5872V15H52.4281ZM59.2463 9.65909L62.1554 15H58.7236L55.8827 9.65909H59.2463ZM67.1129 15H62.6356V3.36364H67.0674C68.2644 3.36364 69.2985 3.59659 70.1697 4.0625C71.0447 4.52462 71.719 5.19129 72.1924 6.0625C72.6697 6.92992 72.9084 7.9697 72.9084 9.18182C72.9084 10.3939 72.6716 11.4356 72.1981 12.3068C71.7246 13.1742 71.0542 13.8409 70.1868 14.3068C69.3193 14.7689 68.2947 15 67.1129 15ZM65.7947 12.3182H66.9993C67.575 12.3182 68.0655 12.2254 68.4709 12.0398C68.8799 11.8542 69.1905 11.5341 69.4027 11.0795C69.6186 10.625 69.7265 9.99242 69.7265 9.18182C69.7265 8.37121 69.6167 7.73864 69.397 7.28409C69.1811 6.82954 68.8629 6.50947 68.4424 6.32386C68.0258 6.13826 67.5144 6.04545 66.9084 6.04545H65.7947V12.3182Z" fill="white"/>
<path d="M31.7266 32V20.7273H36.6143C37.473 20.7273 38.1941 20.8429 38.7775 21.074C39.3646 21.3052 39.8068 21.6318 40.104 22.0538C40.4049 22.4758 40.5554 22.973 40.5554 23.5455C40.5554 23.9601 40.4637 24.3381 40.2802 24.6793C40.1004 25.0206 39.8472 25.3068 39.5206 25.538C39.194 25.7655 38.8124 25.9233 38.3757 26.0114V26.1214C38.8601 26.1398 39.3004 26.2627 39.6967 26.4902C40.093 26.7141 40.4086 27.0241 40.6435 27.4205C40.8783 27.8131 40.9957 28.2754 40.9957 28.8075C40.9957 29.424 40.8343 29.9726 40.5114 30.4533C40.1921 30.934 39.7371 31.312 39.1463 31.5872C38.5555 31.8624 37.851 32 37.0327 32H31.7266ZM34.7869 29.5561H36.218C36.7318 29.5561 37.1171 29.4607 37.3739 29.2699C37.6308 29.0754 37.7592 28.7892 37.7592 28.4112C37.7592 28.147 37.6987 27.9232 37.5776 27.7397C37.4565 27.5562 37.284 27.4168 37.0602 27.3214C36.84 27.226 36.574 27.1783 36.2621 27.1783H34.7869V29.5561ZM34.7869 25.2848H36.0419C36.3098 25.2848 36.5465 25.2426 36.752 25.1582C36.9574 25.0738 37.1171 24.9527 37.2308 24.7949C37.3482 24.6335 37.407 24.4371 37.407 24.206C37.407 23.8574 37.2822 23.5913 37.0327 23.4078C36.7831 23.2207 36.4676 23.1271 36.0859 23.1271H34.7869V25.2848ZM48.7512 20.7273H51.8116V27.9489C51.8116 28.8075 51.6061 29.5506 51.1951 30.1781C50.7878 30.8019 50.219 31.2844 49.4888 31.6257C48.7586 31.9633 47.9109 32.1321 46.9458 32.1321C45.9734 32.1321 45.1221 31.9633 44.3919 31.6257C43.6616 31.2844 43.0929 30.8019 42.6855 30.1781C42.2819 29.5506 42.0801 28.8075 42.0801 27.9489V20.7273H45.1404V27.6847C45.1404 28.0333 45.2175 28.3452 45.3716 28.6204C45.5257 28.8919 45.7386 29.1048 46.0101 29.2589C46.2853 29.413 46.5972 29.4901 46.9458 29.4901C47.2981 29.4901 47.61 29.413 47.8816 29.2589C48.1531 29.1048 48.3659 28.8919 48.5201 28.6204C48.6742 28.3452 48.7512 28.0333 48.7512 27.6847V20.7273ZM53.2661 32V20.7273H56.3265V29.5341H60.884V32H53.2661ZM62.1211 32V20.7273H65.1815V25.2848H65.3356L68.7262 20.7273H72.293L68.484 25.7472L72.381 32H68.7262L66.1942 27.7727L65.1815 29.0938V32H62.1211ZM34.5284 45H31.5063V37.1455H34.4977C35.3057 37.1455 36.0037 37.3027 36.5918 37.6172C37.1824 37.9291 37.6375 38.3791 37.9571 38.9672C38.2793 39.5527 38.4403 40.2545 38.4403 41.0727C38.4403 41.8909 38.2805 42.594 37.9609 43.1821C37.6413 43.7676 37.1888 44.2176 36.6033 44.5321C36.0178 44.844 35.3261 45 34.5284 45ZM33.6386 43.1898H34.4517C34.8403 43.1898 35.1714 43.1271 35.445 43.0018C35.7212 42.8766 35.9308 42.6605 36.074 42.3537C36.2197 42.0469 36.2926 41.6199 36.2926 41.0727C36.2926 40.5256 36.2185 40.0986 36.0702 39.7918C35.9244 39.4849 35.7097 39.2689 35.4259 39.1436C35.1446 39.0183 34.7994 38.9557 34.3903 38.9557H33.6386V43.1898ZM39.427 45V37.1455H45.0877V38.8636H41.5593V40.2136H44.7963V41.9318H41.5593V43.2818H45.0724V45H39.427ZM46.1453 45V37.1455H48.2777V43.2818H51.4533V45H46.1453ZM52.3152 45V37.1455H57.976V38.8636H54.4476V40.2136H57.6846V41.9318H54.4476V43.2818H57.9607V45H52.3152ZM58.8188 38.8636V37.1455H65.6455V38.8636H63.283V45H61.1813V38.8636H58.8188ZM66.448 45V37.1455H72.1088V38.8636H68.5804V40.2136H71.8174V41.9318H68.5804V43.2818H72.0935V45H66.448Z" fill="white"/>
<path d="M20 24.75V23.7167C20 22.2699 20 21.5465 19.7275 20.9939C19.4879 20.5078 19.1054 20.1126 18.635 19.8649C18.1002 19.5833 17.4001 19.5833 16 19.5833H14C12.5999 19.5833 11.8998 19.5833 11.365 19.8649C10.8946 20.1126 10.5122 20.5078 10.2725 20.9939C10 21.5465 10 22.2699 10 23.7167V24.75M3.75 24.75H26.25M23.75 24.75V39.2167C23.75 41.3869 23.75 42.4719 23.3413 43.3009C22.9818 44.0301 22.4081 44.6228 21.7025 44.9943C20.9002 45.4167 19.8502 45.4167 17.75 45.4167H12.25C10.1498 45.4167 9.0997 45.4167 8.29754 44.9943C7.59193 44.6228 7.01825 44.0301 6.65873 43.3009C6.25 42.4719 6.25 41.3869 6.25 39.2167V24.75" stroke="white" stroke-width="2" stroke-linecap="round" stroke-linejoin="round"/>
<path d="M13.75 30.6701C13.75 30.5194 13.75 30.4441 13.7727 30.3865C13.7927 30.3359 13.8246 30.2947 13.8638 30.2689C13.9083 30.2396 13.9667 30.2396 14.0833 30.2396H15.9167C16.0333 30.2396 16.0917 30.2396 16.1363 30.2689C16.1755 30.2947 16.2073 30.3359 16.2273 30.3865C16.25 30.4441 16.25 30.5194 16.25 30.6701V36.1597H17.9167L15 39.9271L12.0833 36.1597H13.75V30.6701Z" fill="white" stroke="white" stroke-width="2" stroke-linecap="round" stroke-linejoin="round"/>
</svg>
